HIERARCHY
ROOT Character1_Hips
{
  OFFSET 0.0213904 16.1711 -0.0466787
  CHANNELS 6 Xposition Yposition Zposition Zrotation Xrotation Yrotation
  JOINT Character1_LeftUpLeg
  {
    OFFSET 1.33984 -0.942852 0
    CHANNELS 6 Xposition Yposition Zposition Zrotation Xrotation Yrotation
    JOINT Character1_LeftLeg
    {
      OFFSET 1.03111 -5.48941 0.514162
      CHANNELS 6 Xposition Yposition Zposition Zrotation Xrotation Yrotation
      JOINT Character1_LeftFoot
      {
        OFFSET 0.584471 -7.37543 -1.61389
        CHANNELS 6 Xposition Yposition Zposition Zrotation Xrotation Yrotation
        JOINT Character1_LeftToeBase
        {
          OFFSET 0.308452 -0.81575 3.43202
          CHANNELS 6 Xposition Yposition Zposition Zrotation Xrotation Yrotation
          End Site
          {
            OFFSET 0 0 0
          }
        }
      }
    }
  }
  JOINT Character1_RightUpLeg
  {
    OFFSET -1.33984 -0.942852 0
    CHANNELS 6 Xposition Yposition Zposition Zrotation Xrotation Yrotation
    JOINT Character1_RightLeg
    {
      OFFSET -1.03111 -5.48942 0.514162
      CHANNELS 6 Xposition Yposition Zposition Zrotation Xrotation Yrotation
      JOINT Character1_RightFoot
      {
        OFFSET -0.584472 -7.37543 -1.61389
        CHANNELS 6 Xposition Yposition Zposition Zrotation Xrotation Yrotation
        JOINT Character1_RightToeBase
        {
          OFFSET -0.308452 -0.815752 3.43202
          CHANNELS 6 Xposition Yposition Zposition Zrotation Xrotation Yrotation
          End Site
          {
            OFFSET 0 0 0
          }
        }
      }
    }
  }
  JOINT Character1_Spine
  {
    OFFSET 0 1.05263 0
    CHANNELS 6 Xposition Yposition Zposition Zrotation Xrotation Yrotation
    JOINT Character1_Spine1
    {
      OFFSET 0 2.01813 0
      CHANNELS 6 Xposition Yposition Zposition Zrotation Xrotation Yrotation
      JOINT Character1_Spine2
      {
        OFFSET 0 2.01813 0
        CHANNELS 6 Xposition Yposition Zposition Zrotation Xrotation Yrotation
        JOINT Character1_LeftShoulder
        {
          OFFSET 1.05263 2.25701 0
          CHANNELS 6 Xposition Yposition Zposition Zrotation Xrotation Yrotation
          JOINT Character1_LeftArm
          {
            OFFSET 1.59242 -0.163556 -0.172859
            CHANNELS 6 Xposition Yposition Zposition Zrotation Xrotation Yrotation
            JOINT Character1_LeftForeArm
            {
              OFFSET 4.24523 -1.87828 -0.32555
              CHANNELS 6 Xposition Yposition Zposition Zrotation Xrotation Yrotation
              JOINT Character1_LeftHand
              {
                OFFSET 2.98616 -1.30582 0.32612
                CHANNELS 6 Xposition Yposition Zposition Zrotation Xrotation Yrotation
                JOINT Character1_LeftHandThumb1
                {
                  OFFSET 0.707167 -0.296377 0.777353
                  CHANNELS 6 Xposition Yposition Zposition Zrotation Xrotation Yrotation
                  JOINT Character1_LeftHandThumb2
                  {
                    OFFSET 0.248522 -0.159515 0.331579
                    CHANNELS 6 Xposition Yposition Zposition Zrotation Xrotation Yrotation
                    JOINT Character1_LeftHandThumb3
                    {
                      OFFSET 0.259194 -0.25406 0.227961
                      CHANNELS 6 Xposition Yposition Zposition Zrotation Xrotation Yrotation
                      JOINT Character1_LeftHandThumb4
                      {
                        OFFSET 0.226666 -0.258213 0.206783
                        CHANNELS 6 Xposition Yposition Zposition Zrotation Xrotation Yrotation
                        End Site
                        {
                          OFFSET 0 0 0
                        }
                      }
                    }
                  }
                }
                JOINT Character1_LeftHandIndex1
                {
                  OFFSET 1.48444 -0.354189 0.611986
                  CHANNELS 6 Xposition Yposition Zposition Zrotation Xrotation Yrotation
                  JOINT Character1_LeftHandIndex2
                  {
                    OFFSET 0.504724 -0.451988 0.0493907
                    CHANNELS 6 Xposition Yposition Zposition Zrotation Xrotation Yrotation
                    JOINT Character1_LeftHandIndex3
                    {
                      OFFSET 0.296442 -0.265512 0.0299126
                      CHANNELS 6 Xposition Yposition Zposition Zrotation Xrotation Yrotation
                      JOINT Character1_LeftHandIndex4
                      {
                        OFFSET 0.197651 -0.217277 0.0208595
                        CHANNELS 6 Xposition Yposition Zposition Zrotation Xrotation Yrotation
                        End Site
                        {
                          OFFSET 0 0 0
                        }
                      }
                    }
                  }
                }
                JOINT Character1_LeftHandMiddle1
                {
                  OFFSET 1.48537 -0.317032 0.212679
                  CHANNELS 6 Xposition Yposition Zposition Zrotation Xrotation Yrotation
                  JOINT Character1_LeftHandMiddle2
                  {
                    OFFSET 0.67206 -0.620936 0.0176346
                    CHANNELS 6 Xposition Yposition Zposition Zrotation Xrotation Yrotation
                    JOINT Character1_LeftHandMiddle3
                    {
                      OFFSET 0.264032 -0.321119 0.00884268
                      CHANNELS 6 Xposition Yposition Zposition Zrotation Xrotation Yrotation
                      JOINT Character1_LeftHandMiddle4
                      {
                        OFFSET 0.180854 -0.241264 0.00658419
                        CHANNELS 6 Xposition Yposition Zposition Zrotation Xrotation Yrotation
                        End Site
                        {
                          OFFSET 0 0 0
                        }
                      }
                    }
                  }
                }
                JOINT Character1_LeftHandRing1
                {
                  OFFSET 1.48599 -0.345216 -0.172738
                  CHANNELS 6 Xposition Yposition Zposition Zrotation Xrotation Yrotation
                  JOINT Character1_LeftHandRing2
                  {
                    OFFSET 0.522197 -0.611355 0.0123874
                    CHANNELS 6 Xposition Yposition Zposition Zrotation Xrotation Yrotation
                    JOINT Character1_LeftHandRing3
                    {
                      OFFSET 0.273491 -0.359549 0.00739132
                      CHANNELS 6 Xposition Yposition Zposition Zrotation Xrotation Yrotation
                      JOINT Character1_LeftHandRing4
                      {
                        OFFSET 0.175076 -0.230164 0.00473118
                        CHANNELS 6 Xposition Yposition Zposition Zrotation Xrotation Yrotation
                        End Site
                        {
                          OFFSET 0 0 0
                        }
                      }
                    }
                  }
                }
                JOINT Character1_LeftHandPinky1
                {
                  OFFSET 1.45006 -0.450851 -0.482262
                  CHANNELS 6 Xposition Yposition Zposition Zrotation Xrotation Yrotation
                  JOINT Character1_LeftHandPinky2
                  {
                    OFFSET 0.289756 -0.353117 -0.0298238
                    CHANNELS 6 Xposition Yposition Zposition Zrotation Xrotation Yrotation
                    JOINT Character1_LeftHandPinky3
                    {
                      OFFSET 0.271225 -0.369689 -0.028032
                      CHANNELS 6 Xposition Yposition Zposition Zrotation Xrotation Yrotation
                      JOINT Character1_LeftHandPinky4
                      {
                        OFFSET 0.192972 -0.263027 -0.019944
                        CHANNELS 6 Xposition Yposition Zposition Zrotation Xrotation Yrotation
                        End Site
                        {
                          OFFSET 0 0 0
                        }
                      }
                    }
                  }
                }
              }
            }
          }
        }
        JOINT Character1_RightShoulder
        {
          OFFSET -1.05263 2.25701 0
          CHANNELS 6 Xposition Yposition Zposition Zrotation Xrotation Yrotation
          JOINT Character1_RightArm
          {
            OFFSET -1.59242 -0.163551 -0.172858
            CHANNELS 6 Xposition Yposition Zposition Zrotation Xrotation Yrotation
            JOINT Character1_RightForeArm
            {
              OFFSET -4.24519 -1.87835 -0.325765
              CHANNELS 6 Xposition Yposition Zposition Zrotation Xrotation Yrotation
              JOINT Character1_RightHand
              {
                OFFSET -2.98614 -1.30584 0.32613
                CHANNELS 6 Xposition Yposition Zposition Zrotation Xrotation Yrotation
                JOINT Character1_RightHandThumb1
                {
                  OFFSET -0.707168 -0.296375 0.777354
                  CHANNELS 6 Xposition Yposition Zposition Zrotation Xrotation Yrotation
                  JOINT Character1_RightHandThumb2
                  {
                    OFFSET -0.248521 -0.159517 0.33158
                    CHANNELS 6 Xposition Yposition Zposition Zrotation Xrotation Yrotation
                    JOINT Character1_RightHandThumb3
                    {
                      OFFSET -0.259195 -0.254063 0.227961
                      CHANNELS 6 Xposition Yposition Zposition Zrotation Xrotation Yrotation
                      JOINT Character1_RightHandThumb4
                      {
                        OFFSET -0.226667 -0.258211 0.206783
                        CHANNELS 6 Xposition Yposition Zposition Zrotation Xrotation Yrotation
                        End Site
                        {
                          OFFSET 0 0 0
                        }
                      }
                    }
                  }
                }
                JOINT Character1_RightHandIndex1
                {
                  OFFSET -1.48445 -0.354191 0.611987
                  CHANNELS 6 Xposition Yposition Zposition Zrotation Xrotation Yrotation
                  JOINT Character1_RightHandIndex2
                  {
                    OFFSET -0.504725 -0.451985 0.0493911
                    CHANNELS 6 Xposition Yposition Zposition Zrotation Xrotation Yrotation
                    JOINT Character1_RightHandIndex3
                    {
                      OFFSET -0.296443 -0.265512 0.0299124
                      CHANNELS 6 Xposition Yposition Zposition Zrotation Xrotation Yrotation
                      JOINT Character1_RightHandIndex4
                      {
                        OFFSET -0.197651 -0.217279 0.0208595
                        CHANNELS 6 Xposition Yposition Zposition Zrotation Xrotation Yrotation
                        End Site
                        {
                          OFFSET 0 0 0
                        }
                      }
                    }
                  }
                }
                JOINT Character1_RightHandMiddle1
                {
                  OFFSET -1.48537 -0.317029 0.21268
                  CHANNELS 6 Xposition Yposition Zposition Zrotation Xrotation Yrotation
                  JOINT Character1_RightHandMiddle2
                  {
                    OFFSET -0.67206 -0.620937 0.0176348
                    CHANNELS 6 Xposition Yposition Zposition Zrotation Xrotation Yrotation
                    JOINT Character1_RightHandMiddle3
                    {
                      OFFSET -0.264031 -0.321119 0.00884203
                      CHANNELS 6 Xposition Yposition Zposition Zrotation Xrotation Yrotation
                      JOINT Character1_RightHandMiddle4
                      {
                        OFFSET -0.180855 -0.241264 0.00658412
                        CHANNELS 6 Xposition Yposition Zposition Zrotation Xrotation Yrotation
                        End Site
                        {
                          OFFSET 0 0 0
                        }
                      }
                    }
                  }
                }
                JOINT Character1_RightHandRing1
                {
                  OFFSET -1.48599 -0.345213 -0.172737
                  CHANNELS 6 Xposition Yposition Zposition Zrotation Xrotation Yrotation
                  JOINT Character1_RightHandRing2
                  {
                    OFFSET -0.522197 -0.611354 0.0123877
                    CHANNELS 6 Xposition Yposition Zposition Zrotation Xrotation Yrotation
                    JOINT Character1_RightHandRing3
                    {
                      OFFSET -0.273489 -0.359548 0.00739067
                      CHANNELS 6 Xposition Yposition Zposition Zrotation Xrotation Yrotation
                      JOINT Character1_RightHandRing4
                      {
                        OFFSET -0.175076 -0.230166 0.00473132
                        CHANNELS 6 Xposition Yposition Zposition Zrotation Xrotation Yrotation
                        End Site
                        {
                          OFFSET 0 0 0
                        }
                      }
                    }
                  }
                }
                JOINT Character1_RightHandPinky1
                {
                  OFFSET -1.45007 -0.450851 -0.482262
                  CHANNELS 6 Xposition Yposition Zposition Zrotation Xrotation Yrotation
                  JOINT Character1_RightHandPinky2
                  {
                    OFFSET -0.289757 -0.353119 -0.0298243
                    CHANNELS 6 Xposition Yposition Zposition Zrotation Xrotation Yrotation
                    JOINT Character1_RightHandPinky3
                    {
                      OFFSET -0.271226 -0.369689 -0.0280309
                      CHANNELS 6 Xposition Yposition Zposition Zrotation Xrotation Yrotation
                      JOINT Character1_RightHandPinky4
                      {
                        OFFSET -0.192971 -0.263026 -0.0199453
                        CHANNELS 6 Xposition Yposition Zposition Zrotation Xrotation Yrotation
                        End Site
                        {
                          OFFSET 0 0 0
                        }
                      }
                    }
                  }
                }
              }
            }
          }
        }
        JOINT Character1_Neck
        {
          OFFSET 0 2.01813 0
          CHANNELS 6 Xposition Yposition Zposition Zrotation Xrotation Yrotation
          JOINT Character1_Head
          {
            OFFSET 0 3.0075 0
            CHANNELS 6 Xposition Yposition Zposition Zrotation Xrotation Yrotation
            End Site
            {
              OFFSET 0 0 0
            }
          }
        }
      }
    }
  }
}
MOTION
Frames:	2
Frame Time:	0.0166667
0.0213904 16.1711 -0.0466787 -0.235397 -0.216165 -1.31758 1.33984 -0.942852 3.07525e-010 -2.13173 -28.0205 -10.5065 1.03111 -5.48941 0.514162 -0.580475 20.7167 12.0544 0.584471 -7.37543 -1.61389 0.715682 14.3595 0.872658 0.308452 -0.81575 3.43202 1.2921e-015 -4.65077e-007 -1.82882e-014 -1.33984 -0.942852 5.46327e-011 1.84484 -8.58239 3.90967 -1.03111 -5.48942 0.514162 0.924911 33.0459 -2.98253 -0.584472 -7.37543 -1.61389 -0.627073 5.52414 -0.267702 -0.308452 -0.815752 3.43202 5.42332e-015 -5.88056e-005 -3.60276e-015 -1.06947e-008 1.05263 -1.00862e-009 -0.606463 -0.335476 0.0495805 2.17654e-009 2.01813 -7.60988e-008 0.0100656 0.941584 -2.53645 -5.99203e-009 2.01813 -2.67557e-008 0.00781202 0.942223 -2.53627 1.05263 2.25701 1.35803e-008 -0.70859 -0.0782688 -0.0175344 1.59242 -0.163556 -0.172859 -42.4576 12.564 39.225 4.24523 -1.87828 -0.32555 -8.2311 -5.06176 -42.7419 2.98616 -1.30582 0.32612 -10.475 -5.11132 -4.72278 0.707167 -0.296377 0.777353 2.92889e-005 -7.20854e-006 -4.43477e-007 0.248522 -0.159515 0.331579 -0.000100206 -3.8724e-005 0.000112621 0.259194 -0.25406 0.227961 0.000166492 3.30648e-005 9.44176e-005 0.226666 -0.258213 0.206783 -7.03726e-005 -3.88892e-006 -7.44545e-006 1.48444 -0.354189 0.611986 2.92889e-005 -7.20854e-006 -4.43477e-007 0.504724 -0.451988 0.0493907 -0.000100206 -3.8724e-005 0.000112621 0.296442 -0.265512 0.0299126 0.000166492 3.30648e-005 9.44176e-005 0.197651 -0.217277 0.0208595 -7.03726e-005 -3.88892e-006 -7.44545e-006 1.48537 -0.317032 0.212679 2.92889e-005 -7.20854e-006 -4.43477e-007 0.67206 -0.620936 0.0176346 -0.000100206 -3.8724e-005 0.000112621 0.264032 -0.321119 0.00884268 0.000166492 3.30648e-005 9.44176e-005 0.180854 -0.241264 0.00658419 -7.03726e-005 -3.88892e-006 -7.44545e-006 1.48599 -0.345216 -0.172738 2.92889e-005 -7.20854e-006 -4.43477e-007 0.522197 -0.611355 0.0123874 -0.000100206 -3.8724e-005 0.000112621 0.273491 -0.359549 0.00739132 0.000166492 3.30648e-005 9.44176e-005 0.175076 -0.230164 0.00473118 -7.03726e-005 -3.88892e-006 -7.44545e-006 1.45006 -0.450851 -0.482262 2.92889e-005 -7.20854e-006 -4.43477e-007 0.289756 -0.353117 -0.0298238 -0.000100206 -3.8724e-005 0.000112621 0.271225 -0.369689 -0.028032 0.000166492 3.30648e-005 9.44176e-005 0.192972 -0.263027 -0.019944 -7.03726e-005 -3.88892e-006 -7.44545e-006 -1.05263 2.25701 2.81487e-007 -0.000594755 4.44786e-005 1.67591e-011 -1.59242 -0.163551 -0.172858 6.4913 -21.1216 45.3705 -4.24519 -1.87835 -0.325765 -0.498862 -25.3357 45.828 -2.98614 -1.30584 0.32613 0.668847 -11.3302 -4.87915 -0.707168 -0.296375 0.777354 7.87688e-006 -1.56695e-005 1.27946e-005 -0.248521 -0.159517 0.33158 0.000102065 1.5234e-006 -8.30504e-005 -0.259195 -0.254063 0.227961 1.37876e-005 -3.96073e-006 4.96404e-006 -0.226667 -0.258211 0.206783 -2.49271e-005 -2.38289e-005 -2.90955e-005 -1.48445 -0.354191 0.611987 7.87688e-006 -1.56695e-005 1.27946e-005 -0.504725 -0.451985 0.0493911 0.000102065 1.5234e-006 -8.30504e-005 -0.296443 -0.265512 0.0299124 1.37876e-005 -3.96073e-006 4.96404e-006 -0.197651 -0.217279 0.0208595 -2.49271e-005 -2.38289e-005 -2.90955e-005 -1.48537 -0.317029 0.21268 7.87688e-006 -1.56695e-005 1.27946e-005 -0.67206 -0.620937 0.0176348 0.000102065 1.5234e-006 -8.30504e-005 -0.264031 -0.321119 0.00884203 1.37876e-005 -3.96073e-006 4.96404e-006 -0.180855 -0.241264 0.00658412 -2.49271e-005 -2.38289e-005 -2.90955e-005 -1.48599 -0.345213 -0.172737 7.87688e-006 -1.56695e-005 1.27946e-005 -0.522197 -0.611354 0.0123877 0.000102065 1.5234e-006 -8.30504e-005 -0.273489 -0.359548 0.00739067 1.37876e-005 -3.96073e-006 4.96404e-006 -0.175076 -0.230166 0.00473132 -2.49271e-005 -2.38289e-005 -2.90955e-005 -1.45007 -0.450851 -0.482262 7.87688e-006 -1.56695e-005 1.27946e-005 -0.289757 -0.353119 -0.0298243 0.000102065 1.5234e-006 -8.30504e-005 -0.271226 -0.369689 -0.0280309 1.37876e-005 -3.96073e-006 4.96404e-006 -0.192971 -0.263026 -0.0199453 -2.49271e-005 -2.38289e-005 -2.90955e-005 -5.82012e-009 2.01813 -1.34066e-007 5.10716e-010 -9.68312e-006 -1.73917e-009 -1.40937e-009 3.0075 -4.30351e-007 -2.2184e-014 8.77865e-006 -1.33219e-009 
0.020756 16.0229 -0.0455842 -0.230711 -0.207242 -1.1711 1.33984 -0.942852 3.08539e-010 -2.18846 -27.7612 -9.83477 1.03111 -5.48941 0.51416 -0.242095 20.8733 11.0818 0.584472 -7.37543 -1.61389 0.481101 11.9046 0.77345 0.308452 -0.815751 3.43202 8.94531e-016 -4.51437e-007 -1.74931e-014 -1.33984 -0.942852 5.48129e-011 1.79079 -9.02927 3.67322 -1.03111 -5.48942 0.514162 0.750074 33.4346 -2.95177 -0.584472 -7.37543 -1.61389 -0.500612 2.8776 -0.105362 -0.308451 -0.815752 3.43202 5.39958e-015 -4.56979e-005 -3.69831e-015 -1.073e-008 1.05263 -1.01195e-009 -0.597346 -0.309941 0.0440043 2.18281e-009 2.01813 -7.60968e-008 0.0266985 1.93519 -2.2562 -6.0127e-009 2.01813 -2.66546e-008 0.0246844 1.93575 -2.25574 1.05262 2.25701 1.37017e-008 -0.706477 -0.0781109 -0.0182225 1.59242 -0.163555 -0.172859 -43.4614 12.086 34.0384 4.24523 -1.87827 -0.325583 -7.61355 -6.19483 -36.4893 2.98615 -1.30582 0.326152 -9.21591 -4.06033 -4.33214 0.707167 -0.296377 0.777353 3.6643e-005 -6.45818e-006 -4.4494e-007 0.248522 -0.159515 0.331579 -0.000102495 -3.90851e-005 9.88016e-005 0.259195 -0.254061 0.227961 0.000160736 3.15746e-005 8.06197e-005 0.226667 -0.258213 0.206783 -7.07177e-005 -3.85851e-006 -7.41735e-006 1.48444 -0.354188 0.611987 3.6643e-005 -6.45818e-006 -4.4494e-007 0.504724 -0.451988 0.0493907 -0.000102495 -3.90851e-005 9.88016e-005 0.296442 -0.265512 0.0299126 0.000160736 3.15746e-005 8.06197e-005 0.197651 -0.217278 0.0208596 -7.07177e-005 -3.85851e-006 -7.41735e-006 1.48537 -0.317032 0.212679 3.6643e-005 -6.45818e-006 -4.4494e-007 0.672059 -0.620935 0.0176346 -0.000102495 -3.90851e-005 9.88016e-005 0.264032 -0.321119 0.00884267 0.000160736 3.15746e-005 8.06197e-005 0.180853 -0.241264 0.00658419 -7.07177e-005 -3.85851e-006 -7.41735e-006 1.48599 -0.345216 -0.172738 3.6643e-005 -6.45818e-006 -4.4494e-007 0.522198 -0.611355 0.0123874 -0.000102495 -3.90851e-005 9.88016e-005 0.27349 -0.359549 0.00739132 0.000160736 3.15746e-005 8.06197e-005 0.175076 -0.230164 0.00473118 -7.07177e-005 -3.85851e-006 -7.41735e-006 1.45006 -0.450851 -0.482263 3.6643e-005 -6.45818e-006 -4.4494e-007 0.289757 -0.353117 -0.0298238 -0.000102495 -3.90851e-005 9.88016e-005 0.271225 -0.36969 -0.0280319 0.000160736 3.15746e-005 8.06197e-005 0.192971 -0.263027 -0.019944 -7.07177e-005 -3.85851e-006 -7.41735e-006 -1.05263 2.257 2.81497e-007 -0.000528562 4.4503e-005 1.68132e-011 -1.59242 -0.163551 -0.172858 10.2072 -17.4062 44.0395 -4.24528 -1.87824 -0.325299 -0.213033 -24.2581 42.6272 -2.98615 -1.30583 0.326118 0.623627 -9.68074 -4.16969 -0.707169 -0.296375 0.777353 8.05557e-006 -1.57212e-005 1.0389e-005 -0.248521 -0.159517 0.331579 9.72793e-005 1.78844e-005 -7.49655e-005 -0.259195 -0.254062 0.227961 1.3476e-005 -3.96452e-006 4.77539e-006 -0.226668 -0.258211 0.206783 -2.49271e-005 -2.40465e-005 -7.57528e-006 -1.48445 -0.354191 0.611987 8.05557e-006 -1.57212e-005 1.0389e-005 -0.504724 -0.451987 0.049391 9.72793e-005 1.78844e-005 -7.49655e-005 -0.296442 -0.265512 0.0299126 1.3476e-005 -3.96452e-006 4.77539e-006 -0.197651 -0.21728 0.0208596 -2.49271e-005 -2.40465e-005 -7.57528e-006 -1.48537 -0.31703 0.212679 8.05557e-006 -1.57212e-005 1.0389e-005 -0.67206 -0.620938 0.0176341 9.72793e-005 1.78844e-005 -7.49655e-005 -0.264031 -0.321119 0.00884213 1.3476e-005 -3.96452e-006 4.77539e-006 -0.180854 -0.241264 0.00658397 -2.49271e-005 -2.40465e-005 -7.57528e-006 -1.48599 -0.345215 -0.172739 8.05557e-006 -1.57212e-005 1.0389e-005 -0.522198 -0.611355 0.0123874 9.72793e-005 1.78844e-005 -7.49655e-005 -0.27349 -0.359548 0.00739174 1.3476e-005 -3.96452e-006 4.77539e-006 -0.175077 -0.230165 0.00473136 -2.49271e-005 -2.40465e-005 -7.57528e-006 -1.45007 -0.450852 -0.482262 8.05557e-006 -1.57212e-005 1.0389e-005 -0.289757 -0.353118 -0.0298239 9.72793e-005 1.78844e-005 -7.49655e-005 -0.271225 -0.36969 -0.028032 1.3476e-005 -3.96452e-006 4.77539e-006 -0.19297 -0.263025 -0.0199452 -2.49271e-005 -2.40465e-005 -7.57528e-006 -5.84316e-009 2.01813 -1.34182e-007 5.124e-010 -2.02557e-005 -1.57198e-009 -1.4127e-009 3.0075 -4.30457e-007 -2.23869e-014 1.77699e-005 -1.20574e-009 
